<?xml version="1.0" standalone="no"?><!DOCTYPE svg PUBLIC "-//W3C//DTD SVG 1.1//EN" "http://www.w3.org/Graphics/SVG/1.1/DTD/svg11.dtd"><svg t="1714122995970" class="icon" viewBox="0 0 1170 1024" version="1.1" xmlns="http://www.w3.org/2000/svg" p-id="2606" id="mx_n_1714122995971" xmlns:xlink="http://www.w3.org/1999/xlink" width="228.515625" height="200"><path d="M1072.761905 0c53.784381 0 97.52381 43.739429 97.523809 97.52381v243.809523c0 53.784381-43.739429 97.52381-97.523809 97.52381H97.52381C43.739429 438.857143 0 395.117714 0 341.333333V97.52381C0 43.739429 43.739429 0 97.52381 0h975.238095z m24.380952 365.714286v-292.571429h-1024v292.571429h1024z m-24.380952 195.047619c53.784381 0 97.52381 43.739429 97.523809 97.523809v243.809524c0 53.784381-43.739429 97.52381-97.523809 97.52381H97.52381c-53.784381 0-97.52381-43.739429-97.52381-97.52381v-243.809524c0-53.784381 43.739429-97.52381 97.52381-97.523809h975.238095z m24.380952 365.714285v-292.571428h-1024v292.571428h1024zM828.952381 219.428571a48.761905 48.761905 0 1 1 97.523809 0 48.761905 48.761905 0 0 1-97.523809 0zM828.952381 780.190476a48.761905 48.761905 0 1 1 97.523809 0 48.761905 48.761905 0 0 1-97.523809 0zM633.904762 219.428571a48.761905 48.761905 0 1 1 97.523809 0 48.761905 48.761905 0 0 1-97.523809 0zM633.904762 780.190476a48.761905 48.761905 0 1 1 97.523809 0 48.761905 48.761905 0 0 1-97.523809 0z" fill="#409EFF" p-id="2607"></path></svg>