<?xml version="1.0" standalone="no"?><!DOCTYPE svg PUBLIC "-//W3C//DTD SVG 1.1//EN" "http://www.w3.org/Graphics/SVG/1.1/DTD/svg11.dtd"><svg t="1714125688350" class="icon" viewBox="0 0 1024 1024" version="1.1" xmlns="http://www.w3.org/2000/svg" p-id="4039" xmlns:xlink="http://www.w3.org/1999/xlink" width="200" height="200"><path d="M789.333333 896H106.666667V682.666667h682.666666c59.733333 0 106.666667 46.933333 106.666667 106.666666s-46.933333 106.666667-106.666667 106.666667z" fill="#B0BEC5" p-id="4040"></path><path d="M213.333333 725.333333c-36.266667 0-64 27.733333-64 64s27.733333 64 64 64 64-27.733333 64-64-27.733333-64-64-64z m0 85.333334c-12.8 0-21.333333-8.533333-21.333333-21.333334s8.533333-21.333333 21.333333-21.333333 21.333333 8.533333 21.333334 21.333333-8.533333 21.333333-21.333334 21.333334zM405.333333 725.333333c-36.266667 0-64 27.733333-64 64s27.733333 64 64 64 64-27.733333 64-64-27.733333-64-64-64z m0 85.333334c-12.8 0-21.333333-8.533333-21.333333-21.333334s8.533333-21.333333 21.333333-21.333333 21.333333 8.533333 21.333334 21.333333-8.533333 21.333333-21.333334 21.333334zM789.333333 725.333333c-36.266667 0-64 27.733333-64 64s27.733333 64 64 64 64-27.733333 64-64-27.733333-64-64-64z m0 85.333334c-12.8 0-21.333333-8.533333-21.333333-21.333334s8.533333-21.333333 21.333333-21.333333 21.333333 8.533333 21.333334 21.333333-8.533333 21.333333-21.333334 21.333334zM597.333333 725.333333c-36.266667 0-64 27.733333-64 64s27.733333 64 64 64 64-27.733333 64-64-27.733333-64-64-64z m0 85.333334c-12.8 0-21.333333-8.533333-21.333333-21.333334s8.533333-21.333333 21.333333-21.333333 21.333333 8.533333 21.333334 21.333333-8.533333 21.333333-21.333334 21.333334z" fill="#37474F" p-id="4041"></path><path d="M746.666667 661.333333H234.666667c-23.466667 0-42.666667-19.2-42.666667-42.666666V149.333333c0-23.466667 19.2-42.666667 42.666667-42.666666h512c23.466667 0 42.666667 19.2 42.666666 42.666666v469.333334c0 23.466667-19.2 42.666667-42.666666 42.666666z" fill="#FF9800" p-id="4042"></path><path d="M565.333333 277.333333h-149.333333c-17.066667 0-32-14.933333-32-32s14.933333-32 32-32h149.333333c17.066667 0 32 14.933333 32 32s-14.933333 32-32 32z" fill="#8A5100" p-id="4043"></path><path d="M789.333333 661.333333H106.666667v42.666667h682.666666c46.933333 0 85.333333 38.4 85.333334 85.333333s-38.4 85.333333-85.333334 85.333334H106.666667v42.666666h682.666666c70.4 0 128-57.6 128-128s-57.6-128-128-128z" fill="#607D8B" p-id="4044"></path></svg>