<?xml version="1.0" standalone="no"?>
<!DOCTYPE svg PUBLIC "-//W3C//DTD SVG 1.1//EN" "http://www.w3.org/Graphics/SVG/1.1/DTD/svg11.dtd"><svg t="1714122764333"
    class="icon" viewBox="0 0 1024 1024" version="1.1" xmlns="http://www.w3.org/2000/svg" p-id="1504"
    xmlns:xlink="http://www.w3.org/1999/xlink" width="200" height="200">
    <path
        d="M828.8256 626.0736l-123.5968-50.944a29.184 29.184 0 0 0-21.4016 54.2208l60.8768 24.6784-60.8768 27.904a28.8256 28.8256 0 0 0-14.7456 37.888 29.2864 29.2864 0 0 0 26.2656 16.1792c4.096 0.512 8.2944-0.7168 11.52-3.2768l121.9584-55.6544a29.2864 29.2864 0 0 0 16.384-26.3168 26.0096 26.0096 0 0 0-16.384-24.6784zM549.0176 510.976a28.8256 28.8256 0 0 0-36.1984 18.0224l-62.4128 190.7712a28.7744 28.7744 0 0 0 18.0736 36.1984c2.56 1.1776 5.376 1.7408 8.192 1.6384a32.0512 32.0512 0 0 0 27.9552-19.7632l62.5152-190.6688a28.7744 28.7744 0 0 0-18.1248-36.1984z m-192.3072 80.9984a30.5152 30.5152 0 0 0-37.8368-16.384l-123.7504 50.4832a30.8224 30.8224 0 0 0-18.0224 26.3168c0.1024 11.264 6.656 21.3504 16.896 26.0096l121.6512 55.8592c3.584 1.8432 7.4752 2.9696 11.52 3.2768a29.2864 29.2864 0 0 0 26.2656-16.384 28.7744 28.7744 0 0 0-14.7456-37.888l-60.928-27.904 60.928-24.6784c16.384-7.8848 24.6272-24.3712 18.0224-38.7072z"
        fill="#409EFF" p-id="1505"></path>
    <path
        d="M857.6 160c31.7952 0 57.6 25.8048 57.6 57.6V793.6c0 31.7952-25.8048 57.6-57.6 57.6H166.4A57.6 57.6 0 0 1 108.8 793.6V217.6c0-31.7952 25.8048-57.6 57.6-57.6h691.2m0-57.6H166.4A115.2 115.2 0 0 0 51.2 217.6V793.6a115.2 115.2 0 0 0 115.2 115.2h691.2A115.2 115.2 0 0 0 972.8 793.6V217.6A115.2 115.2 0 0 0 857.6 102.4z"
        fill="#409EFF" p-id="1506"></path>
    <path
        d="M972.8 357.0688H51.2V414.72h921.6zM178.176 264.192a43.2128 43.2128 0 1 0 86.4256 0 43.2128 43.2128 0 0 0-86.3744 0zM312.32 264.192a43.2128 43.2128 0 1 0 86.4256 0 43.2128 43.2128 0 0 0-86.4256 0zM446.464 264.192a43.2128 43.2128 0 1 0 86.3744 0 43.2128 43.2128 0 0 0-86.4256 0z"
        fill="#409EFF" p-id="1507"></path>
</svg>