<?xml version="1.0" standalone="no"?><!DOCTYPE svg PUBLIC "-//W3C//DTD SVG 1.1//EN" "http://www.w3.org/Graphics/SVG/1.1/DTD/svg11.dtd"><svg t="1714137965211" class="icon" viewBox="0 0 1024 1024" version="1.1" xmlns="http://www.w3.org/2000/svg" p-id="9936" xmlns:xlink="http://www.w3.org/1999/xlink" width="200" height="200"><path d="M532.288 234.752c-192.256 24-242.304 163.84-242.304 163.84-50.048 190.176 141.664 205.376 180.48 255.68 55.072 72.576 7.296 156.832 0 208.32-20.8 145.728 139.424 159.776 195.072 148.64 228.8-47.392 239.488-358.688 214.752-502.624-51.712-294.336-348-273.856-348-273.856z m132.672 713.28c-55.072 11.712-131.52 36.864-134.368-85.44 7.328-51.488 55.104-156.224 0-229.344-38.784-77.824-232.736-96.576-180.48-234.656 0 0 41.632-97.12 181.632-100.64 0 0 235.52-33.344 286.72 210.048 25.28 143.968 41.6 339.968-153.504 440.032zM499.136 149.92c40.48 0 73.056-33.376 73.056-74.912 0-41.536-32.576-74.88-73.056-74.88s-73.088 33.344-73.088 74.88c0 41.536 32.608 74.88 73.088 74.88z m211.36 18.72c40.48 0 73.088-33.376 73.088-74.88 0-41.6-32.608-74.912-73.088-74.912S637.44 52.16 637.44 93.728c0 41.536 33.184 74.88 73.088 74.88zM344.512 151.04C344.512 71.488 281.6 7.136 204.544 7.136c-77.6 0-140 64.352-140 143.936S127.52 295.04 204.544 295.04s139.968-64.352 139.968-143.936z m537.472-35.104c-40.48 0-73.088 33.344-73.088 74.88 0 41.568 32.608 74.912 73.088 74.912s73.088-33.344 73.088-74.88c0-40.96-32.64-74.912-73.088-74.912z" fill="#409EFF" p-id="9937"></path></svg>